<svg xmlns="http://www.w3.org/2000/svg" viewBox="0 0 512 512">
  <rect x="30" y="30" width="452" height="452" rx="104" fill="#FAF6EE"/>
  <rect x="130" y="118" width="236" height="300" rx="4" fill="#E8DFCD" transform="rotate(-7 248 268)"/>
  <rect x="144" y="108" width="236" height="300" rx="4" fill="#FFFDF8" transform="rotate(3.5 262 258)"/>
  <rect x="106" y="118" width="180" height="44" fill="#8FA58A" opacity=".82" transform="rotate(-24 196 140)"/>
  <g fill="#2B2A28" opacity=".75" transform="rotate(3.5 262 258)">
    <rect x="180" y="245" width="150" height="11" rx="5"/>
    <rect x="180" y="283" width="126" height="11" rx="5"/>
    <rect x="180" y="321" width="150" height="11" rx="5"/>
    <rect x="180" y="359" width="96" height="11" rx="5"/>
  </g>
  <rect x="343" y="109" width="46" height="210" fill="#C8674A" transform="rotate(3.5 366 214)"/>
  <circle cx="196" cy="386" r="21" fill="#D9A441"/>
</svg>
